<svg width="13" height="13" viewBox="0 0 13 13" fill="none" xmlns="http://www.w3.org/2000/svg">
<path d="M5.33335 2.33345H2.00002C1.6464 2.33345 1.30726 2.47393 1.05721 2.72398C0.807163 2.97402 0.666687 3.31316 0.666687 3.66678V11.0001C0.666687 11.3537 0.807163 11.6929 1.05721 11.9429C1.30726 12.193 1.6464 12.3335 2.00002 12.3335H9.33335C9.68698 12.3335 10.0261 12.193 10.2762 11.9429C10.5262 11.6929 10.6667 11.3537 10.6667 11.0001V7.66678M9.72402 1.39078C9.84702 1.26344 9.99414 1.16186 10.1568 1.09198C10.3195 1.0221 10.4944 0.985323 10.6715 0.983784C10.8485 0.982246 11.0241 1.01598 11.188 1.08302C11.3518 1.15006 11.5007 1.24907 11.6259 1.37426C11.7511 1.49945 11.8501 1.64832 11.9171 1.81218C11.9842 1.97604 12.0179 2.15161 12.0164 2.32865C12.0148 2.50569 11.978 2.68065 11.9082 2.84332C11.8383 3.006 11.7367 3.15312 11.6094 3.27612L5.88535 9.00012H4.00002V7.11478L9.72402 1.39078Z" stroke="#3C65F5" stroke-width="1.33333" stroke-linecap="round" stroke-linejoin="round"/>
</svg>
