<svg width="12" height="14" viewBox="0 0 12 14" fill="none" xmlns="http://www.w3.org/2000/svg">
<path d="M10.6667 3.66667L10.0887 11.7613C10.0647 12.0977 9.91422 12.4125 9.66743 12.6424C9.42064 12.8722 9.09593 13 8.75869 13H3.24135C2.90411 13 2.5794 12.8722 2.33261 12.6424C2.08582 12.4125 1.9353 12.0977 1.91135 11.7613L1.33335 3.66667M4.66669 6.33333V10.3333M7.33335 6.33333V10.3333M8.00002 3.66667V1.66667C8.00002 1.48986 7.92978 1.32029 7.80476 1.19526C7.67973 1.07024 7.51016 1 7.33335 1H4.66669C4.48988 1 4.32031 1.07024 4.19528 1.19526C4.07026 1.32029 4.00002 1.48986 4.00002 1.66667V3.66667M0.666687 3.66667H11.3334" stroke="#3C65F5" stroke-width="1.33333" stroke-linecap="round" stroke-linejoin="round"/>
</svg>
