<svg width="8" height="5" viewBox="0 0 8 5" fill="none" xmlns="http://www.w3.org/2000/svg">
<path d="M0.607239 0H7.39276C7.51287 2.78312e-05 7.63027 0.0386999 7.73013 0.111128C7.82999 0.183555 7.90781 0.286487 7.95377 0.40691C7.99973 0.527332 8.01176 0.659838 7.98834 0.787678C7.96491 0.915517 7.90709 1.03295 7.82217 1.12513L4.42941 4.80702C4.31551 4.93058 4.16105 5 4 5C3.83895 5 3.68449 4.93058 3.57059 4.80702L0.17783 1.12513C0.0929137 1.03295 0.0350883 0.915517 0.0116636 0.787678C-0.0117612 0.659838 0.000266709 0.527332 0.0462263 0.40691C0.0921859 0.286487 0.170014 0.183555 0.269871 0.111128C0.369729 0.0386999 0.487132 2.78312e-05 0.607239 0Z" fill="#A0ABB8"/>
</svg>
